# xmcd
#
# Track frame offsets: 
#        150
#        15461
#        42098
#        73919
#        103625
#        133056
#        146643
#        177600
#        196687
#        223913
#        265854
#        287747
#
# Disc length: 4023 seconds
#
# Revision: 1
# Processed by: cddbd v1.5.2PL0 Copyright (c) Steve Scherf et al.
# Submitted via: ExactAudioCopy v0.99pb3
#
DISCID=bb0fb50c
DTITLE=Steve Smith and Vital Information - Vitalization
DYEAR=2007
DGENRE=Jazz
TTITLE0=Interwoven Rhythms - Synchronous
TTITLE1=Get Serious
TTITLE2=The Trouble With
TTITLE3=The Bottom Line
TTITLE4=Seven and a Half
TTITLE5=Interwoven Rhythms - Dialogue
TTITLE6=J Ben Jazz
TTITLE7=Groove Time
TTITLE8=You Know What I Mean
TTITLE9=The Closer
TTITLE10=Jimmy Jive (for Jimmy Smith)
TTITLE11=Positano
EXTD=YEAR: 2007
EXTT0=
EXTT1=
EXTT2=
EXTT3=
EXTT4=
EXTT5=
EXTT6=
EXTT7=
EXTT8=
EXTT9=
EXTT10=
EXTT11=
PLAYORDER=
